:SAMPLES-PER-SECOND 30
:FRAME-RANGE 1-564
:FULLY-SPECIFIED
:DEGREES
494
root  41.8814 38.6 -140.774 -169.781 -74.9283 164.12
RightUpLeg  11.5124 -3.68083 -2.82169
RightLeg  -8.06355 -12.4444 -0.380328
RightFoot  -2.02556 -0.568516 6.79951
RightToes  -1.74624e-010 0 -3.6325e-017
Spine  7.9045 2.31279 8.44926
Spine1  0.259636 4.32307 -7.3637
HEad  2.01135 31.0045 -13.0253
LeftShoulder1  2.90831 -3.60507 -34.876
LeftArm  3.6363 11.196 -30.1949
LeftForeArm  4.42601 -3.16421 -16.9352
LeftHand  -1.17003 -3.26532 15.8728
RightShoulder  5.79411 4.89803 59.8201
RightArm  12.1806 4.20529 -6.91219
RightForeArm  14.268 4.04514 14.6801
RightHand  0.488326 19.6105 1.75492
LeftUpLeg  12.6637 9.06691 2.4909
LeftLeg  6.64927 10.1609 -0.875817
LeftFoot  -10.1934 0.0384855 2.27561
LeftToes  -6.43926e-010 8.38805e-011 -3.16407e-011
495
root  41.9505 38.5454 -140.99 -168.583 -79.1537 162.535
RightUpLeg  12.8896 -2.77967 -1.24421
RightLeg  -9.15718 -17.5399 0.573661
RightFoot  -1.85513 -0.518345 6.08809
RightToes  -1.74624e-010 0 -3.6325e-017
Spine  8.01973 2.11884 9.09834
Spine1  0.614748 4.1372 -7.15936
HEad  1.96775 29.3736 -12.6469
LeftShoulder1  2.95006 -3.65572 -35.1648
LeftArm  4.37486 11.3774 -30.3736
LeftForeArm  2.54244 -3.91102 -16.8425
LeftHand  -0.979198 -2.88372 13.9344
RightShoulder  5.44699 4.28249 60.5973
RightArm  10.9822 4.37613 -7.12569
RightForeArm  15.4461 3.31502 14.736
RightHand  0.544955 19.6679 2.00935
LeftUpLeg  13.8904 9.77366 3.93601
LeftLeg  5.88742 11.03 -1.3684
LeftFoot  -10.4181 0.0478182 1.83669
LeftToes  -6.43926e-010 8.38805e-011 -3.16407e-011
496
root  42.0129 38.5228 -141.103 -160.228 -83.0061 154.394
RightUpLeg  12.8494 -2.99378 -1.00814
RightLeg  -9.06816 -21.302 1.68543
RightFoot  -2.17903 -0.473627 5.7198
RightToes  -1.74624e-010 0 -3.6325e-017
Spine  7.66247 1.77466 8.61821
Spine1  0.525885 3.59926 -6.4066
HEad  2.19435 27.6487 -12.0474
LeftShoulder1  2.87542 -3.50755 -34.9732
LeftArm  3.09524 11.7374 -30.8691
LeftForeArm  3.41343 -3.44617 -16.8328
LeftHand  -1.01925 -3.28337 13.8498
RightShoulder  5.43867 4.19489 61.128
RightArm  10.4093 4.27902 -7.20375
RightForeArm  16.9572 2.69 14.7535
RightHand  0.296585 19.2135 0.896989
LeftUpLeg  14.4914 9.41739 3.8567
LeftLeg  4.21654 12.8565 -1.57114
LeftFoot  -10.1714 0.0378478 2.28223
LeftToes  -6.43926e-010 8.38805e-011 -3.16407e-011
497
root  42.1117 38.5047 -141.211 -140.998 -86.3614 135.246
RightUpLeg  12.6505 -3.1236 -0.546586
RightLeg  -8.52635 -24.7173 2.52408
RightFoot  -2.42319 -0.452992 5.59157
RightToes  -1.74624e-010 0 -3.6325e-017
Spine  7.44241 1.98857 9.9473
Spine1  0.604314 4.34765 -8.4839
HEad  2.29668 24.9669 -10.1067
LeftShoulder1  3.06202 -4.50398 -32.2323
LeftArm  -1.34231 11.5507 -33.3492
LeftForeArm  8.75272 -1.32782 -16.6957
LeftHand  -1.15881 -3.78615 14.8677
RightShoulder  4.50863 2.66486 63.01
RightArm  10.0354 4.23798 -7.00951
RightForeArm  17.2976 3.05975 14.5636
RightHand  0.48389 19.5176 1.74344
LeftUpLeg  15.0328 9.12367 4.01124
LeftLeg  2.53777 14.1117 -1.55161
LeftFoot  -9.94318 0.0311058 2.35031
LeftToes  -6.43926e-010 8.38805e-011 -3.16407e-011
498
root  42.246 38.4758 -141.332 -81.1312 -87.7766 75.3975
RightUpLeg  12.1722 -2.70957 0.26161
RightLeg  -7.72167 -28.3671 2.69841
RightFoot  -2.71211 -0.41924 5.30689
RightToes  -1.74624e-010 0 -3.6325e-017
Spine  7.57572 2.1308 9.74256
Spine1  0.543498 4.42246 -8.07886
HEad  2.46982 23.4876 -9.33849
LeftShoulder1  3.0856 -4.5629 -32.2458
LeftArm  -2.18343 10.826 -33.7037
LeftForeArm  9.20405 -0.545833 -16.7532
LeftHand  -1.06763 -3.30177 14.4603
RightShoulder  4.37328 2.40909 63.6684
RightArm  8.34186 4.52328 -6.58252
RightForeArm  19.3529 2.09383 14.4881
RightHand  0.476477 19.7837 1.68413
LeftUpLeg  15.4319 9.0677 4.34282
LeftLeg  0.906373 14.9178 -1.75676
LeftFoot  -9.89432 0.030992 2.25662
LeftToes  -6.43926e-010 8.38805e-011 -3.16407e-011
499
root  42.3563 38.4461 -141.41 -32.4044 -85.6739 26.8813
RightUpLeg  11.2341 -3.03486 0.344739
RightLeg  -6.14463 -31.3778 2.8334
RightFoot  -3.44662 -0.397948 5.42162
RightToes  -1.74624e-010 0 -3.6325e-017
Spine  7.458 2.02636 8.45596
Spine1  0.280728 3.95266 -6.59522
HEad  2.45452 22.2396 -8.90408
LeftShoulder1  3.03898 -4.36566 -32.6104
LeftArm  -1.34784 11.24 -33.6854
LeftForeArm  8.40258 -1.57068 -16.6445
LeftHand  -1.06017 -3.09716 14.6935
RightShoulder  4.54681 2.62221 63.8551
RightArm  16.3842 3.59268 -6.70078
RightForeArm  12.0123 5.92025 14.519
RightHand  0.547771 19.3934 2.05207
LeftUpLeg  15.7412 8.57492 4.16599
LeftLeg  -1.73833 15.8841 -1.98514
LeftFoot  -8.96428 0.00561927 2.32804
LeftToes  -6.43926e-010 8.38805e-011 -3.16407e-011
500
root  42.4754 38.4249 -141.454 -18.1019 -83.2093 12.4335
RightUpLeg  10.7429 -3.28802 0.60864
RightLeg  -4.78346 -33.7343 2.9976
RightFoot  -3.87548 -0.375604 5.3473
RightToes  -1.74624e-010 0 -3.6325e-017
Spine  7.74689 1.99301 8.2746
Spine1  -0.0364414 3.90632 -6.59367
HEad  2.1348 20.6514 -7.9536
LeftShoulder1  3.04105 -4.46872 -32.138
LeftArm  -1.94534 10.7143 -34.0076
LeftForeArm  9.01177 -0.817885 -16.7319
LeftHand  -1.08167 -3.36433 14.5451
RightShoulder  4.62015 2.63553 64.6173
RightArm  16.2674 3.71782 -6.31723
RightForeArm  12.9179 5.89302 14.4519
RightHand  0.720027 19.8998 2.7809
LeftUpLeg  16.2802 8.07106 4.32593
LeftLeg  -4.32318 15.3149 -1.96723
LeftFoot  -6.41815 -0.0255337 1.49288
LeftToes  -6.43926e-010 8.38805e-011 -3.16407e-011
501
root  42.599 38.3867 -141.49 -11.4288 -80.9746 5.48586
RightUpLeg  10.3277 -3.38516 1.03048
RightLeg  -3.43455 -36.0761 2.97884
RightFoot  -4.37192 -0.360887 5.4323
RightToes  -1.74624e-010 0 -3.6325e-017
Spine  7.60437 2.30544 7.39316
Spine1  0.50391 3.95711 -5.42849
HEad  1.11922 19.5601 -7.30369
LeftShoulder1  3.0774 -4.51441 -32.3746
LeftArm  -1.46231 10.1713 -34.1716
LeftForeArm  9.33116 -1.11818 -16.7058
LeftHand  -1.07441 -3.29901 14.5541
RightShoulder  4.76097 2.81539 64.6763
RightArm  17.6916 3.76709 -5.7718
RightForeArm  11.8738 6.85609 14.1973
RightHand  0.712618 19.6305 2.78409
LeftUpLeg  16.5391 7.65669 4.77854
LeftLeg  -5.71695 13.7921 -1.45163
LeftFoot  -6.13879 -0.00880384 1.00732
LeftToes  -6.43926e-010 8.38805e-011 -3.16407e-011
502
root  42.7188 38.3691 -141.524 -8.46062 -79.3619 2.02562
RightUpLeg  10.2917 -3.33324 1.40614
RightLeg  -2.47755 -37.9343 2.8982
RightFoot  -4.66598 -0.366819 5.73909
RightToes  -1.74624e-010 0 -3.6325e-017
Spine  8.2652 2.3527 6.59974
Spine1  0.132186 3.83522 -5.03245
HEad  0.978145 17.7715 -6.68794
LeftShoulder1  3.01775 -4.27351 -32.794
LeftArm  0.474557 10.063 -33.5591
LeftForeArm  8.21143 -1.91253 -16.7839
LeftHand  -1.11107 -3.58061 14.5847
RightShoulder  5.36845 3.52511 65.4181
RightArm  18.1327 4.07983 -5.6856
RightForeArm  12.6145 7.05782 14.107
RightHand  0.72584 19.6741 2.83873
LeftUpLeg  16.8623 7.61911 5.30861
LeftLeg  -6.16473 11.9059 -0.804565
LeftFoot  -5.70894 -0.00928262 0.8876
LeftToes  -6.43926e-010 8.38805e-011 -3.16407e-011
503
root  42.8365 38.3839 -141.527 -7.02155 -78.3891 0.197205
RightUpLeg  9.86815 -2.94669 1.81875
RightLeg  -0.652752 -37.7278 1.59765
RightFoot  -4.31964 -0.352726 5.26487
RightToes  -1.74624e-010 0 -3.6325e-017
Spine  8.79028 2.94262 5.06076
Spine1  -0.171158 4.01017 -3.2537
HEad  0.767079 16.3903 -6.31879
LeftShoulder1  3.02137 -4.03586 -34.054
LeftArm  2.43642 9.29095 -32.5927
LeftForeArm  6.49764 -2.09069 -17.0425
LeftHand  -1.10745 -3.36586 14.88
RightShoulder  5.70007 3.92932 65.6359
RightArm  18.4724 4.5278 -5.6559
RightForeArm  13.0067 7.34856 13.9786
RightHand  0.679999 19.44 2.65956
LeftUpLeg  17.1695 7.82902 5.98613
LeftLeg  -6.70016 10.069 -0.810749
LeftFoot  -5.0965 -0.00363731 0.629443
LeftToes  -6.43926e-010 8.38805e-011 -3.16407e-011
504
root  42.9475 38.4332 -141.474 -4.74973 -77.6239 -2.30426
RightUpLeg  9.8929 -3.83082 1.32451
RightLeg  -0.0471119 -35.652 2.15305
RightFoot  -4.1901 -0.453645 6.79399
RightToes  -1.74624e-010 0 -3.6325e-017
Spine  8.8899 3.30535 4.89225
Spine1  -0.316576 4.33721 -3.03918
HEad  1.00561 14.9092 -5.82383
LeftShoulder1  3.03667 -4.03658 -34.2507
LeftArm  2.0627 9.11731 -32.3351
LeftForeArm  6.39219 -1.62027 -17.1357
LeftHand  -1.06237 -2.58605 15.6277
RightShoulder  5.8741 4.11381 65.9427
RightArm  17.9858 4.8241 -5.09171
RightForeArm  13.5089 7.54144 13.7817
RightHand  0.669858 19.5006 2.60459
LeftUpLeg  17.3135 7.5251 6.14087
LeftLeg  -7.35072 9.66055 -0.318138
LeftFoot  -4.47218 -0.0127152 0.660926
LeftToes  -6.43926e-010 8.38805e-011 -3.16407e-011
505
root  43.0207 38.4793 -141.385 -2.38901 -77.2157 -4.90959
RightUpLeg  10.0747 -2.62884 2.14284
RightLeg  0.363061 -33.2427 0.697764
RightFoot  -3.18921 -0.566718 7.63567
RightToes  -1.74624e-010 0 -3.6325e-017
Spine  9.0144 2.78866 7.0632
Spine1  -0.687433 4.55607 -6.36821
HEad  1.89 14.4786 -4.4314
LeftShoulder1  2.89848 -3.99468 -32.6444
LeftArm  1.93944 10.4196 -32.4625
LeftForeArm  6.88643 -2.19825 -16.9304
LeftHand  -1.0898 -3.27382 14.7982
RightShoulder  6.59708 4.75665 67.8959
RightArm  17.4924 5.02009 -4.94943
RightForeArm  13.5463 7.7177 13.6242
RightHand  0.660394 19.4594 2.56621
LeftUpLeg  17.5345 7.6562 6.6286
LeftLeg  -7.72057 9.25651 -0.212645
LeftFoot  -4.11229 -0.0506955 1.19511
LeftToes  -6.43926e-010 8.38805e-011 -3.16407e-011
